<svg xmlns="http://www.w3.org/2000/svg" width="15" height="19" viewBox="0 0 15 11">
    <path fill="#028FDF" fill-rule="nonzero" d="M7.365 13.3s4.72-4.247 6.255-6.137c1.4-1.723 1.48-4.295 0-5.934C12.14-.41 9.74-.41 8.26 1.229l-.896.992-.015-.016-.015.017-.896-.993C4.959-.409 2.56-.409 1.08 1.23c-1.48 1.639-1.4 4.212 0 5.935C2.616 9.054 7.365 13.3 7.365 13.3zm-.11-1.99a138.397 138.397 0 0 1-2.69-2.527C3.458 7.709 2.62 6.84 2.167 6.28 1.16 5.043 1.144 3.247 2.119 2.168c.924-1.023 2.357-1.023 3.28 0L7.327 4.3l.032-.034.023.024 1.92-2.124c.923-1.023 2.356-1.023 3.28 0 .975 1.08.958 2.876-.048 4.113-.455.561-1.29 1.43-2.392 2.505l-.382.37a140.508 140.508 0 0 1-2.397 2.253l-.108-.098z"/>
</svg>
