<svg xmlns="http://www.w3.org/2000/svg" width="14" height="19" viewBox="0 0 14.5 11">
    <path fill="#028FDF" fill-rule="evenodd" d="M10.35 8.97V7.935a1.035 1.035 0 1 1 2.07 0V8.97h1.035a1.035 1.035 0 0 1 0 2.07H12.42v1.035a1.035 1.035 0 0 1-2.07 0V11.04H9.315a1.035 1.035 0 0 1 0-2.07h1.035zM1.035 0h12.42a1.035 1.035 0 0 1 0 2.07H1.035a1.035 1.035 0 1 1 0-2.07zm0 4.14h12.42a1.035 1.035 0 0 1 0 2.07H1.035a1.035 1.035 0 1 1 0-2.07zm0 4.14h4.83a1.035 1.035 0 0 1 0 2.07h-4.83a1.035 1.035 0 0 1 0-2.07z"/>
</svg>
